# xmcd
#
# Track frame offsets: 
#        750
#        17567
#        34465
#        49227
#        65792
#        82567
#        101622
#        119017
#        133070
#        151750
#        173385
#        191237
#        205940
#
# Disc length: 2969 seconds
#
# Revision: 1
# Processed by: cddbd v1.5.2PL0 Copyright (c) Steve Scherf et al.
# Submitted via: ExactAudioCopy v1.0b3
#
DISCID=ad0b8f0d
DTITLE=Shakira - Laundry Service
DYEAR=2001
DGENRE=Pop
TTITLE0=Objection (Tango)
TTITLE1=Underneath Your Clothes
TTITLE2=Whenever Wherever
TTITLE3=Rules
TTITLE4=The One
TTITLE5=Ready For The Good Times
TTITLE6=Fool
TTITLE7=Te Dejo Madrid
TTITLE8=Poem To A Horse
TTITLE9=Que Me Quedes Tu
TTITLE10=Eyes Like Yours (Ojos Asi)
TTITLE11=Suerte (Whenever Wherever)
TTITLE12=Te Aviso Te Anuncio (Tango)
EXTD=
EXTT0=
EXTT1=
EXTT2=
EXTT3=
EXTT4=
EXTT5=
EXTT6=
EXTT7=
EXTT8=
EXTT9=
EXTT10=
EXTT11=
EXTT12=
PLAYORDER=
